<svg width="25" height="26" viewBox="0 0 25 26" fill="none" xmlns="http://www.w3.org/2000/svg">
<path d="M11.2471 4.18164C11.3352 4.19232 11.4076 4.24691 11.4473 4.32129L11.4756 4.40137V4.4043C11.4756 4.40356 11.5378 4.71064 11.7373 5.05664C12.0011 5.51164 12.3686 5.81495 12.8291 5.96191C13.1806 6.07367 13.4834 6.28125 13.7275 6.57422C13.9426 6.8326 14.1079 7.15015 14.2207 7.51855V7.51953C14.4149 8.15506 14.4401 8.91504 14.2891 9.55566C14.2654 9.65551 14.1885 9.73734 14.085 9.75977L14.0811 9.76074C14.0789 9.76117 14.0581 9.76505 14.0312 9.76953C14.0009 9.77459 13.9583 9.78173 13.9053 9.78809C13.799 9.80082 13.6499 9.8125 13.4727 9.8125C13.3417 9.8125 13.1948 9.80621 13.0381 9.78809C12.78 9.75784 12.5335 9.70124 12.3027 9.61816L12.0771 9.52637C11.7066 9.35676 11.3841 9.1141 11.1201 8.80469C10.8726 8.51504 10.6837 8.17939 10.5605 7.80762C10.4369 7.43831 10.385 7.05291 10.4043 6.66113C10.4294 6.14221 10.5491 5.32047 10.9746 4.34082C11.0209 4.23452 11.129 4.16825 11.2461 4.18262L11.2471 4.18164ZM11.2139 5.20898C11.0153 5.82573 10.9494 6.33792 10.9326 6.68945C10.9012 7.33345 11.1141 7.97113 11.5137 8.43848C11.8997 8.88947 12.428 9.16051 13.0869 9.24023C13.3876 9.27691 13.6482 9.26079 13.8096 9.24316C13.8932 8.74129 13.8611 8.15894 13.7158 7.68359C13.579 7.23397 13.287 6.68048 12.6738 6.48535C12.3461 6.38102 12.0515 6.21137 11.7979 5.98145C11.5962 5.79846 11.4203 5.57765 11.2764 5.3252C11.2538 5.28603 11.2335 5.247 11.2139 5.20898Z" fill="#3C653D" stroke="#3C653D" stroke-width="0.2"/>
<path d="M16.5352 2.90332C16.6531 2.8883 16.7613 2.95611 16.8076 3.06152C17.0878 3.70597 17.167 4.24757 17.1836 4.59082C17.1959 4.85552 17.1612 5.11574 17.0781 5.36523C16.9945 5.61635 16.8674 5.8431 16.7002 6.04004V6.04102C16.419 6.36937 16.0399 6.58556 15.5986 6.67578L15.4053 6.70605C15.3001 6.71782 15.2027 6.72264 15.1152 6.72266C14.8915 6.72266 14.7322 6.69281 14.7002 6.68555V6.68652L14.6992 6.68555C14.6978 6.68523 14.6961 6.68576 14.6953 6.68555V6.68457C14.5967 6.66092 14.5197 6.58324 14.4961 6.48242C14.3953 6.05251 14.4129 5.54397 14.542 5.11816L14.6055 4.9375C14.676 4.76287 14.7665 4.60715 14.877 4.47461C15.0457 4.2721 15.2554 4.12842 15.5 4.05078C15.8295 3.94551 16.031 3.71748 16.1514 3.50977C16.2114 3.40606 16.2503 3.3081 16.2744 3.23633C16.2864 3.20067 16.2946 3.17143 16.2998 3.15137C16.3023 3.14158 16.3045 3.13405 16.3057 3.12891C16.3063 3.12589 16.3064 3.12334 16.3066 3.12207C16.3279 3.00826 16.418 2.91663 16.5352 2.90234V2.90332ZM16.5361 3.89844C16.3173 4.226 16.0163 4.46093 15.6553 4.57617C15.3021 4.68881 15.1298 5.01243 15.0469 5.28418C14.9656 5.55174 14.944 5.87573 14.9805 6.16504C15.0783 6.17164 15.2089 6.17604 15.3545 6.1582C15.7553 6.10918 16.0721 5.94515 16.3037 5.6748C16.5441 5.39322 16.6743 5.00892 16.6553 4.61914C16.6465 4.43991 16.6148 4.19386 16.5361 3.89844Z" fill="#3C653D" stroke="#3C653D" stroke-width="0.2"/>
<path d="M15.9195 19.4694H9.42197L7.63281 10.9023H19.6149C20.5995 10.9023 21.0917 10.9023 21.3486 11.2586C21.6054 11.6149 21.4986 12.1496 21.285 13.2191C20.5445 16.9271 19.934 19.4694 15.9195 19.4694Z" fill="#FFF7E2"/>
<path d="M9.42197 19.4694H15.9195C19.934 19.4694 20.5445 16.9271 21.285 13.2191C21.4986 12.1496 21.6054 11.6149 21.3486 11.2586C21.0917 10.9023 20.5995 10.9023 19.6149 10.9023H7.63281" stroke="#3C653D" stroke-width="0.7" stroke-linecap="round"/>
<path d="M9.42018 19.4728L7.07525 8.21381C6.87613 7.41091 6.1605 6.84766 5.33952 6.84766H4.5" stroke="#3C653D" stroke-width="0.7" stroke-linecap="round"/>
<path d="M10.2092 19.4707H9.84114C8.62152 19.4707 7.63281 20.5089 7.63281 21.7896C7.63281 22.003 7.79759 22.1761 8.00087 22.1761H17.9205" stroke="#3C653D" stroke-width="0.7" stroke-linecap="round" stroke-linejoin="round"/>
<path d="M11.6583 24.8812C12.3994 24.8812 13.0001 24.2755 13.0001 23.5285C13.0001 22.7814 12.3994 22.1758 11.6583 22.1758C10.9172 22.1758 10.3164 22.7814 10.3164 23.5285C10.3164 24.2755 10.9172 24.8812 11.6583 24.8812Z" stroke="#3C653D" stroke-width="0.7"/>
<path d="M17.9161 24.8812C18.6572 24.8812 19.258 24.2755 19.258 23.5285C19.258 22.7814 18.6572 22.1758 17.9161 22.1758C17.175 22.1758 16.5742 22.7814 16.5742 23.5285C16.5742 24.2755 17.175 24.8812 17.9161 24.8812Z" stroke="#3C653D" stroke-width="0.7"/>
</svg>
