<svg width="43" height="37" viewBox="0 0 43 37" fill="none" xmlns="http://www.w3.org/2000/svg">
<path d="M33.8909 24.7827C24.9391 26.7827 12.6305 33.7827 14.8684 29.2827C10.9181 26.7907 35.4524 17.3851 23.82 13.2834C29.8576 7.88509 31.6189 7.29077 35.5693 9.78276C39.5196 12.2748 37.9314 16.3586 33.8909 24.7827Z" fill="#FDF8E5"/>
<path d="M28.4746 26.5C26.7962 31 24.5582 33.5 19.523 33C15.1971 33 12.8092 29.7615 12.8092 27C11.1307 23 15.7566 25 20.0825 25C24.4084 25 28.4746 23.7386 28.4746 26.5Z" fill="#FDF8E5"/>
<path d="M4.00898 23.1694C2.33505 24.4167 1.37571 26.3481 1.37571 28.4694V35.5864H0.5V28.4694C0.5 26.0616 1.58982 23.8687 3.491 22.4524C5.43026 21.0072 7.87393 20.6037 10.1959 21.347C12.3839 22.0467 14.0363 22.3968 14.9598 22.3501C18.5243 22.1851 21.5359 19.1461 21.5359 15.7144C21.5359 13.7825 21.0534 12.8137 20.5424 11.788C19.9736 10.6439 19.3278 9.34775 19.3278 6.67353V0.00133455H20.2035V6.67353C20.2035 9.13557 20.7732 10.2796 21.3244 11.3863C21.8591 12.4601 22.4116 13.5704 22.4116 15.7144C22.4116 19.6069 19.0174 23.0529 15 23.2393C13.9518 23.2886 12.2503 22.9372 9.93273 22.1957C7.8805 21.5392 5.721 21.8937 4.00898 23.1694ZM25.9626 13.859C25.9626 13.267 26.4364 12.7857 27.0188 12.7857C27.6015 12.7857 28.0753 13.2674 28.0753 13.859C28.0753 14.4506 27.6015 14.9324 27.0188 14.9324C26.4364 14.9319 25.9626 14.4506 25.9626 13.859ZM26.8384 13.859C26.8384 13.9605 26.9194 14.0428 27.0188 14.0428C27.1181 14.0428 27.1996 13.9605 27.1996 13.859C27.1996 13.7576 27.1181 13.6753 27.0188 13.6753C26.9194 13.6753 26.8384 13.7576 26.8384 13.859ZM25.7148 25.5794C25.7148 24.9878 26.1886 24.5061 26.7714 24.5061C27.3542 24.5061 27.8279 24.9878 27.8279 25.5794C27.8279 26.1715 27.3542 26.6528 26.7714 26.6528C26.1886 26.6528 25.7148 26.1715 25.7148 25.5794ZM26.5905 25.5794C26.5905 25.6808 26.672 25.7631 26.7714 25.7631C26.8708 25.7631 26.9522 25.6804 26.9522 25.5794C26.9522 25.4784 26.8712 25.3962 26.7714 25.3962C26.6715 25.3962 26.5905 25.4784 26.5905 25.5794ZM32.115 18.591C31.5326 18.591 31.0589 18.1092 31.0589 17.5176C31.0589 16.926 31.5326 16.4443 32.115 16.4443C32.6978 16.4443 33.1715 16.926 33.1715 17.5176C33.1715 18.1097 32.6978 18.591 32.115 18.591ZM32.115 17.7013C32.2148 17.7013 32.2958 17.6186 32.2958 17.5176C32.2958 17.4167 32.2144 17.3339 32.115 17.3339C32.0156 17.3339 31.9346 17.4162 31.9346 17.5176C31.9346 17.619 32.0156 17.7013 32.115 17.7013ZM33.3129 23.4532C33.3129 24.0453 32.8392 24.5266 32.2564 24.5266C31.674 24.5266 31.2003 24.0448 31.2003 23.4532C31.2003 22.8616 31.674 22.3799 32.2564 22.3799C32.8392 22.3799 33.3129 22.8616 33.3129 23.4532ZM32.4372 23.4532C32.4372 23.3518 32.3558 23.2695 32.2564 23.2695C32.157 23.2695 32.076 23.3518 32.076 23.4532C32.076 23.5546 32.157 23.6369 32.2564 23.6369C32.3558 23.6369 32.4372 23.5542 32.4372 23.4532ZM18.8532 27.6905C18.5624 27.1776 18.7358 26.5198 19.2402 26.224C19.7442 25.9286 20.3914 26.1043 20.6834 26.6167C20.8244 26.8654 20.8621 27.1545 20.7889 27.4316C20.7154 27.7083 20.5407 27.94 20.2964 28.0833C20.1304 28.1802 19.9491 28.2265 19.77 28.2265C19.4049 28.2265 19.0489 28.0339 18.8532 27.6905ZM19.6115 27.2457C19.661 27.3324 19.7709 27.3636 19.8581 27.3124C19.9145 27.2795 19.9356 27.2283 19.9426 27.2008C19.9496 27.1732 19.9566 27.1189 19.9242 27.0615C19.8909 27.0028 19.8296 26.9695 19.7674 26.9695C19.7372 26.9695 19.7057 26.9775 19.6777 26.9939C19.5918 27.0451 19.5621 27.1576 19.6115 27.2457ZM31.8006 19.6105L31.569 18.7524C29.8219 19.2391 28.7899 21.0792 29.2685 22.8545L30.1135 22.6196C29.7619 21.3177 30.5194 19.9677 31.8006 19.6105ZM26.6475 16.7294L26.4132 17.5866C26.7057 17.6693 27.003 17.7102 27.2985 17.7102C27.8573 17.7102 28.4094 17.5639 28.9094 17.277C29.6739 16.8384 30.2243 16.1236 30.4594 15.2647L29.6152 15.0267C29.4427 15.657 29.0395 16.181 28.4786 16.5026C27.9177 16.8237 27.2675 16.9042 26.6475 16.7294ZM24.6224 25.0314L25.0204 24.2392C23.4064 23.4025 21.423 24.055 20.5989 25.6946L21.3787 26.099C21.9834 24.8962 23.4367 24.4171 24.6224 25.0314ZM34.6072 12.3969L35.0972 11.6599C33.5967 10.6306 31.5497 11.0314 30.5352 12.5566L31.2603 13.0548C32.0051 11.9361 33.5065 11.6412 34.6072 12.3969ZM26.7862 23.6218L27.2517 22.8683C26.7928 22.5756 26.4736 22.1192 26.3523 21.5823C26.2311 21.0454 26.3234 20.4934 26.6111 20.0268L25.8698 19.554C25.4574 20.2212 25.3256 21.0121 25.4985 21.7803C25.6715 22.5489 26.129 23.2028 26.7862 23.6218ZM18.2822 28.5712L17.9394 27.7528C17.4437 27.9667 16.8968 27.9721 16.3986 27.7688C15.8994 27.5651 15.5088 27.1759 15.2978 26.6732L14.4921 27.022C14.7942 27.743 15.3556 28.3012 16.071 28.5944C16.42 28.7367 16.7852 28.8079 17.1499 28.8079C17.5344 28.8074 17.9184 28.7287 18.2822 28.5712ZM34.6256 19.098C34.799 19.9619 34.2486 20.8084 33.3979 20.9854L33.573 21.8568C34.8962 21.5819 35.7531 20.2644 35.483 18.9201L34.6256 19.098ZM33.9233 14.4653L33.0485 14.5098C33.0813 15.1739 33.3668 15.7851 33.8519 16.2312C34.3064 16.6485 34.8844 16.8744 35.4926 16.8744C35.5346 16.8744 35.5762 16.8735 35.6182 16.8713L35.5745 15.983C35.148 16.0004 34.7513 15.858 34.4391 15.572C34.1278 15.2842 33.9443 14.8919 33.9233 14.4653ZM18.9793 30.3403C18.407 30.3625 17.8557 30.1663 17.4306 29.7736L16.8412 30.4314C17.403 30.951 18.1202 31.2321 18.8751 31.2321C18.9232 31.2321 18.9723 31.2312 19.0204 31.2285C19.8278 31.1898 20.5722 30.8344 21.116 30.2268L20.4684 29.6281C20.0822 30.06 19.5533 30.3127 18.9793 30.3403ZM20.9956 29.0868L21.6432 29.6855C22.0303 29.254 22.5588 29.0009 23.1328 28.9733C23.7037 28.9413 24.2563 29.1468 24.681 29.5396L25.2704 28.8817C24.6732 28.3293 23.9043 28.0464 23.0912 28.0846C22.2838 28.1233 21.5394 28.4792 20.9956 29.0868ZM38.1863 30.9795C38.1863 34.2991 35.5276 37 32.2599 37C30.0303 37 28.0858 35.7416 27.0744 33.8881C24.4472 35.0201 21.789 35.6051 19.2534 35.6055C18.4412 35.6055 17.6412 35.5464 16.8592 35.4267C13.7106 34.9459 11.2012 33.0243 10.1473 30.286C9.82677 29.4524 9.07979 28.9142 8.24436 28.9142C7.09674 28.9142 6.19213 29.8332 6.19213 30.9626V35.5864H5.31642V30.9626C5.31642 29.3425 6.61378 28.0246 8.20846 28.0246C9.44234 28.0246 10.5098 28.7847 10.963 29.9613C11.9013 32.3993 14.1541 34.1132 16.9892 34.5464C20.0476 35.0139 23.3986 34.4984 26.7114 33.075C26.5489 32.6333 26.4338 32.1689 26.3777 31.6849C24.1022 32.6626 21.7518 33.1826 19.541 33.1826C18.8628 33.1826 18.1911 33.1328 17.5444 33.0349C15.2855 32.6889 13.3038 31.1418 12.4951 29.0934C12.1163 28.1353 11.9749 26.6403 12.0743 24.6507L12.101 24.1204L12.6107 24.2401C13.7824 24.515 14.7452 24.64 15.4615 24.6017C20.1444 24.3842 23.952 20.4925 23.952 15.9256C23.952 14.4311 23.8215 13.9004 23.7072 13.6055L23.5882 13.295L23.8478 13.0913C25.4687 11.8191 27.2828 10.6226 28.366 9.90732C28.6445 9.72361 28.8678 9.57638 29.018 9.47363C30.0785 8.74947 31.1644 8.34291 32.3378 8.23082C32.5331 8.21214 32.7306 8.20235 32.9232 8.20235C35.4773 8.20235 38.4604 9.92912 38.4604 14.7967C38.4604 18.5767 37.1175 22.2424 34.5744 25.4384C34.9974 25.6212 35.391 25.8579 35.757 26.1305C38.4709 22.657 39.9071 18.6661 39.9071 14.5587C39.9071 11.8685 39.069 9.67202 37.4831 8.2068C36.0824 6.9124 34.2035 6.30612 32.1916 6.50005C30.7751 6.63661 29.4734 7.11879 28.2119 7.97461C27.3257 8.57555 26.2262 8.70099 25.273 8.31133C24.0637 7.81715 23.2856 6.6504 23.2821 5.33553L23.2685 0.00222412L24.1442 0L24.1578 5.33242C24.1604 6.28343 24.7231 7.12724 25.5913 7.4822C26.2845 7.76599 27.0801 7.67258 27.725 7.23444C29.11 6.295 30.5439 5.76478 32.1084 5.61399C34.3686 5.39736 36.4865 6.08282 38.072 7.54848C39.8453 9.18717 40.7828 11.611 40.7828 14.5587C40.7828 18.8783 39.2752 23.0676 36.4261 26.7035C37.512 27.795 38.1863 29.3083 38.1863 30.9795ZM26.3462 30.7286C26.4771 27.5255 29.0758 24.9585 32.2603 24.9585C32.7503 24.9585 33.224 25.0261 33.6799 25.1404C36.2334 22.0427 37.5847 18.4722 37.5847 14.7954C37.5847 10.5848 35.074 9.09065 32.9232 9.09065C32.7573 9.09065 32.587 9.09954 32.4197 9.11555C31.3956 9.21341 30.4428 9.57193 29.5071 10.2107C29.3543 10.3152 29.127 10.4656 28.8433 10.6524C27.8257 11.3241 26.1566 12.425 24.6276 13.6037C24.7375 14.0183 24.8277 14.6748 24.8277 15.9248C24.8277 20.96 20.6453 25.2512 15.5049 25.4896C14.828 25.5247 13.9601 25.4357 12.9285 25.2209C12.8834 26.7991 13.0131 28.0166 13.3077 28.7621C14.0035 30.5231 15.7177 31.8553 17.6749 32.1551C20.3633 32.563 23.4257 32.0434 26.3462 30.7286ZM37.3106 30.9795C37.3106 28.1504 35.0447 25.8485 32.2599 25.8485C29.4751 25.8485 27.2092 28.15 27.2092 30.9795C27.2092 33.8089 29.4751 36.1104 32.2599 36.1104C35.0447 36.1104 37.3106 33.8085 37.3106 30.9795ZM31.752 32.6391L30.0141 30.874L29.395 31.503L31.8785 34.026L35.1944 29.1041L34.4719 28.6015L31.752 32.6391Z" fill="#3A643C"/>
</svg>
