<svg width="53" height="53" viewBox="0 0 53 53" fill="none" xmlns="http://www.w3.org/2000/svg">
<path d="M41.3151 12.0955C41.3138 11.7252 41.1027 11.3671 40.7725 11.1751L33.3714 6.98823C33.069 6.81714 32.7004 6.81734 32.3909 6.97518C27.436 9.50173 21.3612 9.50066 16.4072 6.97198C16.1012 6.81575 15.7371 6.81359 15.4362 6.97956L8.01098 11.075C7.68079 11.267 7.46968 11.6252 7.46843 11.9955C7.42823 23.1038 14.6179 34.5205 24.3919 39.1487C24.7852 39.3664 24.6453 39.3664 25.0386 39.1487C34.9967 33.6309 41.3182 23.1687 41.3151 12.0955Z" fill="#FDF8E5" stroke="#3A643C" stroke-miterlimit="10"/>
<path opacity="0.5" d="M21.9112 15.4187C21.7786 15.7271 21.7786 16.118 21.7786 16.8999V18.4974C21.7786 18.5353 21.7786 18.5543 21.7664 18.5661C21.7541 18.5779 21.7344 18.5779 21.695 18.5779H20.0365C19.2248 18.5779 18.8189 18.5779 18.4988 18.7057C18.0719 18.876 17.7328 19.2026 17.556 19.6138C17.4233 19.9222 17.4233 20.3131 17.4233 21.095C17.4233 21.8769 17.4233 22.2678 17.556 22.5762C17.7328 22.9873 18.0719 23.314 18.4988 23.4843C18.8189 23.612 19.2248 23.612 20.0365 23.612H21.695C21.7344 23.612 21.7541 23.612 21.7664 23.6238C21.7786 23.6356 21.7786 23.6546 21.7786 23.6926V25.2901C21.7786 26.072 21.7786 26.4629 21.9112 26.7713C22.0881 27.1824 22.4272 27.5091 22.8541 27.6794C23.1742 27.8072 23.5801 27.8072 24.3918 27.8072C25.2035 27.8072 25.6094 27.8072 25.9295 27.6794C26.3564 27.5091 26.6956 27.1824 26.8724 26.7713C27.005 26.4629 27.005 26.072 27.005 25.2901V23.6926C27.005 23.6546 27.005 23.6356 27.0172 23.6238C27.0295 23.612 27.0492 23.612 27.0886 23.612H28.7471C29.5588 23.612 29.9647 23.612 30.2848 23.4843C30.7117 23.314 31.0509 22.9873 31.2277 22.5762C31.3603 22.2678 31.3603 21.8769 31.3603 21.095C31.3603 20.3131 31.3603 19.9222 31.2277 19.6138C31.0509 19.2026 30.7117 18.876 30.2848 18.7057C29.9647 18.5779 29.5588 18.5779 28.7471 18.5779H27.0886C27.0492 18.5779 27.0295 18.5779 27.0172 18.5661C27.005 18.5543 27.005 18.5353 27.005 18.4974V16.8999C27.005 16.118 27.005 15.7271 26.8724 15.4187C26.6956 15.0075 26.3564 14.6809 25.9295 14.5105C25.6094 14.3828 25.2035 14.3828 24.3918 14.3828C23.5801 14.3828 23.1742 14.3828 22.8541 14.5105C22.4272 14.6809 22.0881 15.0075 21.9112 15.4187Z" fill="#E0E8E2" stroke="#3A643C"/>
</svg>
