<svg width="25" height="24" viewBox="0 0 25 24" fill="none" xmlns="http://www.w3.org/2000/svg">
<circle cx="12.5" cy="7.5" r="3.15" stroke="#3A643B" stroke-width="0.7"/>
<path d="M20.9772 12.3431C20.9194 12.3299 20.862 12.3174 20.8051 12.3056C19.301 11.9925 18.0987 12.1281 17.1373 12.5411C16.1745 12.9548 15.4316 13.6557 14.8638 14.5056C13.7474 16.1768 13.3268 18.4004 13.2522 20.0195C13.2705 20.0456 13.2954 20.0805 13.3315 20.1224C13.4071 20.21 13.514 20.3165 13.652 20.4349C13.9277 20.6714 14.3175 20.9449 14.8119 21.2027C15.7991 21.7175 17.194 22.1644 18.9173 22.1341C20.4975 22.1063 21.6607 20.7878 22.5018 18.8624C23.2844 17.0707 23.7389 14.8575 23.9877 13.0194C23.5097 12.9135 22.5957 12.7125 20.9772 12.3431Z" fill="#FFF7E2" fill-opacity="0.886275" stroke="#3A643B" stroke-width="0.7" stroke-linecap="round"/>
<path d="M4.02278 12.3431C4.08057 12.3299 4.13796 12.3174 4.19491 12.3056C5.699 11.9925 6.90135 12.1281 7.86267 12.5411C8.82553 12.9548 9.56841 13.6557 10.1362 14.5056C11.2526 16.1768 11.6732 18.4004 11.7478 20.0195C11.7295 20.0456 11.7046 20.0805 11.6685 20.1224C11.5929 20.21 11.486 20.3165 11.348 20.4349C11.0723 20.6714 10.6825 20.9449 10.1881 21.2027C9.20095 21.7175 7.80602 22.1644 6.08271 22.1341C4.50247 22.1063 3.33931 20.7878 2.49821 18.8624C1.71563 17.0707 1.26114 14.8575 1.01235 13.0194C1.49035 12.9135 2.40427 12.7125 4.02278 12.3431Z" fill="#FFF7E2" fill-opacity="0.886275" stroke="#3A643B" stroke-width="0.7" stroke-linecap="round"/>
</svg>
