<svg width="21" height="20" viewBox="0 0 21 20" fill="none" xmlns="http://www.w3.org/2000/svg">
<g clip-path="url(#clip0_25_6925)">
<path d="M10.1036 1.89535C7.89569 2.10122 6.28543 3.77298 6.00388 4.07327C5.90015 4.18473 4.18451 6.06235 4.22238 7.84401C4.22732 8.04524 4.26189 8.635 4.10383 9.40741C4.04126 9.71081 3.954 10.1226 3.7169 10.6086C3.45676 11.1457 3.30528 11.172 2.76688 12.0188C2.431 12.5451 2.26305 12.8144 2.20213 13.1224C2.08194 13.74 2.29434 14.2509 2.36514 14.4072C2.69279 15.1177 3.32998 15.4567 3.89472 15.7477C4.15158 15.8793 4.61918 16.096 6.12242 16.404C6.9539 16.5743 7.6092 16.709 8.51313 16.7956C10.7491 17.0093 12.4812 16.7368 13.8675 16.5093C15.3625 16.2632 16.0178 16.0248 16.3241 15.9025C17.2724 15.5279 18.3608 15.0976 18.7148 14.1146C18.9519 13.4568 18.7609 12.8237 18.7444 12.7741C18.5946 12.3036 18.3591 12.1983 17.9426 11.4754C17.8257 11.2727 17.5787 10.8392 17.4223 10.3439C17.228 9.72629 17.3334 9.51112 17.2889 8.33316C17.2527 7.37344 17.2329 6.85179 17.037 6.21096C16.8164 5.49272 16.4871 4.99584 16.3092 4.73114C16.1067 4.4293 15.2176 3.16155 13.4723 2.38604C12.9093 2.13528 12.4087 2.05788 12.1502 2.00835C12.1008 1.99906 11.0619 1.80712 10.1003 1.8969L10.1036 1.89535Z" fill="#FFF7E2"/>
<path d="M9.49095 1.98226C8.7917 2.11302 7.49988 2.45111 6.0032 4.05372C5.91008 4.15259 4.18313 6.04064 4.22038 7.82982C4.22546 8.03074 4.25932 8.62235 4.10187 9.39575C4.03922 9.69873 3.95118 10.1117 3.71584 10.5981C3.45511 11.1355 3.30442 11.1626 2.76602 12.011C2.43079 12.5372 2.26149 12.8067 2.20223 13.116C2.08202 13.7348 2.29365 14.2466 2.36476 14.4029C2.69153 15.1141 3.32813 15.4538 3.89362 15.7456C4.15097 15.8779 4.61826 16.0948 6.12171 16.4026C6.95302 16.5732 7.60824 16.7072 8.51234 16.7949C10.7489 17.0085 12.4809 16.7359 13.8676 16.5078C15.3626 16.2623 16.0178 16.0215 16.3242 15.9003C17.274 15.5239 18.361 15.0934 18.7149 14.1095C18.9519 13.4493 18.7606 12.8162 18.7453 12.7668C18.5963 12.2964 18.3593 12.1896 17.9428 11.4656C17.826 11.2631 17.5788 10.8277 17.423 10.3334C17.2283 9.71468 17.3333 9.4994 17.2893 8.31937C17.2537 7.3594 17.2334 6.83636 17.037 6.19372C16.8169 5.47454 16.4868 4.97542 16.309 4.71071C16.1075 4.40932 15.2169 3.1384 13.4731 2.36022C12.8771 2.09551 12.5791 1.96315 12.1508 1.98229C10.8132 2.04448 9.97517 3.48443 9.84819 3.7029C9.07953 5.02485 9.32164 6.44886 9.49095 7.45189C9.60777 8.13758 9.79231 8.68933 9.93623 9.06088" stroke="#3A643B" stroke-width="0.7" stroke-miterlimit="10" stroke-linecap="round"/>
<path d="M9.38454 6.12891C9.66828 6.21345 10.5253 6.50862 11.0637 7.37334C11.6879 8.37601 11.6268 9.73911 10.9138 10.8501C10.5239 10.7714 9.95639 10.5935 9.40491 10.1663C9.08916 9.92155 8.66574 9.59375 8.44166 8.97969C8.20302 8.32855 8.33543 7.75602 8.37618 7.58693C8.58862 6.71775 9.20993 6.25202 9.38454 6.12891Z" stroke="#3A643B" stroke-width="0.7" stroke-miterlimit="10"/>
<path d="M11.334 17.9342C11.8289 18.2638 12.6135 18.406 13.3325 18.2974C14.0065 18.1951 14.5203 17.8882 14.6673 17.5" stroke="#3A643B" stroke-width="0.7" stroke-miterlimit="10" stroke-linecap="round"/>
</g>
<defs>
<clipPath id="clip0_25_6925">
<rect width="20" height="20" fill="white" transform="translate(0.5)"/>
</clipPath>
</defs>
</svg>
