<svg width="19" height="17" viewBox="0 0 19 17" fill="none" xmlns="http://www.w3.org/2000/svg">
<path d="M7.40038 5.07838C8.07765 4.3045 7.99925 3.12612 7.22539 2.44882L5.07312 0.566988C4.69811 0.238581 4.21744 0.0749443 3.72313 0.110173C3.22541 0.141993 2.772 0.365856 2.44586 0.741999L1.37541 1.96358C0.70041 2.73403 0.398126 3.75221 0.543581 4.75905C0.811761 6.60335 1.78335 9.40457 4.91071 12.2852L6.20502 13.4192C9.48909 16.1772 12.4185 16.7795 14.3004 16.8022H14.3413C15.3482 16.8022 16.3016 16.3693 16.9686 15.6068L18.0391 14.3852C18.7163 13.6113 18.6379 12.4329 17.8641 11.7556L15.7175 9.87608C15.3425 9.54767 14.8595 9.38404 14.3618 9.41926C13.8641 9.45449 13.4073 9.68063 13.0822 10.059L12.4686 10.7659C12.2129 11.0624 11.8175 11.1908 11.4595 11.0886C8.92542 10.3761 7.37775 8.18517 6.67986 6.94313C6.46736 6.56472 6.51395 6.09086 6.79918 5.76812L7.40038 5.07838ZM6.52425 4.31134L5.91631 5.00678C5.30837 5.70223 5.20382 6.71134 5.65722 7.51701C6.44244 8.91588 8.19927 11.3864 11.1379 12.2126C11.9266 12.4342 12.7936 12.166 13.3425 11.5285L13.9539 10.8216C14.0766 10.6796 14.2482 10.5944 14.4334 10.5807C14.6198 10.5694 14.8004 10.6307 14.9425 10.7523L17.0891 12.6319C17.38 12.8853 17.4095 13.3296 17.1561 13.6182L16.0857 14.8398C15.6345 15.3546 14.9857 15.6455 14.3084 15.6364C12.6186 15.616 9.96744 15.0603 6.95711 12.5318L5.68325 11.4148C2.81733 8.77389 1.9311 6.24534 1.69226 4.58744C1.59681 3.91812 1.79681 3.23745 2.24796 2.72266L3.31842 1.50107C3.44115 1.3613 3.61273 1.27721 3.79795 1.26244C3.81272 1.26244 3.82977 1.25903 3.84454 1.25903C4.01272 1.25903 4.17635 1.32039 4.30363 1.43403L6.45589 3.31586C6.74793 3.57723 6.77767 4.02043 6.52425 4.31134Z" fill="#3A643B"/>
</svg>
