<svg width="73" height="69" viewBox="0 0 73 69" fill="none" xmlns="http://www.w3.org/2000/svg">
<path d="M36.5 68.5C16.8736 68.5 0.999999 53.2578 0.999997 34.5C0.999995 15.7422 16.8736 0.500005 36.5 0.500003C56.1264 0.500001 72 15.7422 72 34.5C72 53.2578 56.1264 68.5 36.5 68.5Z" fill="white" stroke="#BCBCBC"/>
<path d="M48.2071 35.7071C48.5976 35.3166 48.5976 34.6834 48.2071 34.2929L41.8431 27.9289C41.4526 27.5384 40.8195 27.5384 40.4289 27.9289C40.0384 28.3195 40.0384 28.9526 40.4289 29.3431L46.0858 35L40.4289 40.6569C40.0384 41.0474 40.0384 41.6805 40.4289 42.0711C40.8195 42.4616 41.4526 42.4616 41.8431 42.0711L48.2071 35.7071ZM24.5 35L24.5 36L47.5 36L47.5 35L47.5 34L24.5 34L24.5 35Z" fill="#A5A5A5"/>
</svg>
