<svg width="25" height="24" viewBox="0 0 25 24" fill="none" xmlns="http://www.w3.org/2000/svg">
<path d="M3.5 9.58008H14.6598C17.2902 9.58008 18.6054 9.58008 19.4226 10.3972C20.2398 11.2144 20.2398 12.5296 20.2398 15.16V16.09C20.2398 18.7204 20.2398 20.0355 19.4226 20.8527C18.6054 21.6699 17.2902 21.6699 14.6598 21.6699H9.07992C6.44952 21.6699 5.13432 21.6699 4.31716 20.8527C3.5 20.0355 3.5 18.7204 3.5 16.09V9.58008Z" fill="#FFF7E2"/>
<path d="M20.2398 16.09C20.2398 18.7204 20.2398 20.0355 19.4226 20.8527C18.6054 21.6699 17.2902 21.6699 14.6598 21.6699H9.07992C6.44952 21.6699 5.13432 21.6699 4.31716 20.8527C3.5 20.0355 3.5 18.7204 3.5 16.09V9.58008H14.6598C17.2902 9.58008 18.6054 9.58008 19.4226 10.3972C19.7966 10.7713 19.9995 11.2498 20.1095 11.9109" stroke="#3A643B" stroke-width="0.7" stroke-linecap="round" stroke-linejoin="round"/>
<path d="M14.6598 9.57837V5.49756C14.6598 4.67048 13.9893 4 13.1623 4C12.9241 4 12.6894 4.0568 12.4775 4.1657L4.20893 8.41676C3.77364 8.64055 3.5 9.08891 3.5 9.57837" stroke="#3A643B" stroke-width="0.7" stroke-linecap="round" stroke-linejoin="round"/>
<path d="M19.6318 15.3793C19.6186 17.1603 20.3 17.5022 20.3 17.5022C20.3 17.5022 21.2051 16.5478 21.2065 15.2033C21.208 13.8588 20.5524 12.8202 20.5524 12.8202C20.5611 12.6435 19.645 13.5983 19.6318 15.3793Z" fill="#B0C1B1" stroke="#3A643B" stroke-width="0.7"/>
<path d="M17.7289 19.2687C19.0119 20.5048 19.7941 20.1907 19.7941 20.1907C19.7941 20.1907 19.8103 18.8042 18.8351 17.8779C17.8599 16.9516 16.592 16.7656 16.592 16.7656C16.4705 16.637 16.4459 18.0326 17.7289 19.2687Z" stroke="#3A643B" stroke-width="0.7"/>
<path d="M21.3735 18.4988C19.8346 19.3962 19.9181 20.2224 19.9181 20.2224C19.9181 20.2224 21.2405 20.6001 22.3976 19.9145C23.5546 19.2288 24.0844 18.0714 24.0844 18.0714C24.2412 17.9894 22.9124 17.6013 21.3735 18.4988Z" fill="#B0C1B1" stroke="#3A643B" stroke-width="0.7"/>
</svg>
