<svg width="25" height="24" viewBox="0 0 25 24" fill="none" xmlns="http://www.w3.org/2000/svg">
<path d="M10.5 2C14.9183 2 18.5 5.58172 18.5 10C18.5 11.8486 17.8703 13.5487 16.8174 14.9033L20.207 18.293L20.2754 18.3691C20.5957 18.7619 20.5731 19.3409 20.207 19.707C19.8409 20.0731 19.2619 20.0957 18.8691 19.7754L18.793 19.707L15.4033 16.3174C14.0487 17.3703 12.3486 18 10.5 18C6.08172 18 2.5 14.4183 2.5 10C2.5 5.58172 6.08172 2 10.5 2ZM10.5 4C7.18629 4 4.5 6.68629 4.5 10C4.5 13.3137 7.18629 16 10.5 16C13.8137 16 16.5 13.3137 16.5 10C16.5 6.68629 13.8137 4 10.5 4Z" fill="#2E2F2E"/>
</svg>
