<svg width="41" height="39" viewBox="0 0 41 39" fill="none" xmlns="http://www.w3.org/2000/svg">
<path d="M34.1409 12.262C33.6098 22.3916 27.6652 10.4546 20.3321 10.4546C18.492 11.1937 7.62315 22.9205 6.80762 12.26C6.80762 5.78226 12.999 0 20.3321 0C27.6652 0 34.1409 5.78434 34.1409 12.262Z" fill="#FDF8E5"/>
<path d="M31.2693 38.3276C29.0014 37.8986 27.353 36.7559 26.3611 34.9366C24.9314 32.3089 25.3645 29.2273 25.5555 28.7777C27.2598 27.6226 28.5264 26.1128 29.4671 24.079C30.8502 24.0501 32.2192 23.1055 33.1459 21.542C33.9189 20.2343 34.3287 18.4316 33.4952 17.3631C33.3275 17.1445 33.0714 16.9176 32.6896 16.7567C33.6954 15.0654 33.9003 13.6463 33.9003 11.8229C33.9003 5.30506 27.8279 0 20.3679 0C17.327 0 14.5143 0.882801 12.2512 2.36789C12.2419 2.37201 12.2325 2.37614 12.2232 2.38026C12.1953 2.39676 12.172 2.41739 12.1487 2.43802C8.91695 4.59964 6.83073 8.00296 6.83073 11.8229C6.83073 13.8154 6.8773 14.9045 7.87849 16.5175C7.40816 16.6783 7.10548 16.9382 6.91455 17.1857C6.08099 18.2583 6.48613 20.0569 7.2638 21.3646C8.20446 22.9569 9.60614 23.9058 11.0125 23.9058C11.0777 23.9058 11.1382 23.8893 11.1894 23.8645C12.1999 26.0179 13.5411 27.6721 15.1803 28.7777C15.3665 29.2232 15.8043 32.3047 14.3746 34.9366C13.3828 36.7559 11.7296 37.8986 9.46644 38.3317C9.26154 38.3688 9.13116 38.5504 9.17307 38.7319C9.21032 38.8886 9.36865 39 9.5456 39C9.57354 39 9.59683 38.9959 9.62477 38.9917C13.7274 38.2121 15.2594 35.4523 15.8229 33.2742C16.1814 31.8963 16.214 30.3618 16.079 29.3593C17.3549 30.073 18.8451 30.4566 20.3679 30.4566C21.8906 30.4566 23.3854 30.0689 24.6567 29.3593C24.517 30.3659 24.5543 31.8963 24.9128 33.2742C25.4763 35.4523 27.0084 38.2121 31.1109 38.9917C31.1389 38.9959 31.1668 39 31.1901 39C31.3671 39 31.5254 38.8927 31.5626 38.7319C31.6045 38.5421 31.4742 38.3647 31.2693 38.3276ZM33.1366 11.8188C33.1366 13.8649 32.82 15.1314 31.9352 16.5628C31.7768 16.5463 31.6092 16.5381 31.4229 16.5422C32.2612 7.33055 25.5881 5.09054 25.5182 5.06992C25.318 5.00804 25.1037 5.09879 25.0292 5.27205C24.9594 5.44531 25.0618 5.6392 25.2574 5.7052C25.3133 5.7217 29.8722 7.26042 30.622 13.2626C27.9723 7.46255 19.823 7.51206 19.7252 7.52031C19.5157 7.52443 19.348 7.67707 19.3527 7.8627C19.3573 8.04834 19.525 8.19272 19.7345 8.19272C19.7392 8.19272 19.7392 8.19272 19.7392 8.19272C20.1257 8.18447 28.6894 8.13909 30.3845 14.8797C29.5556 13.9598 28.3448 13.1389 26.729 12.3963C25.8069 11.9714 24.8337 11.6167 23.893 11.2743C22.8965 10.9113 21.8673 10.5359 20.908 10.0821C17.2944 8.35773 14.9847 5.53607 12.9497 2.75153C15.0406 1.44383 17.6018 0.672414 20.3632 0.672414C27.4088 0.672414 33.1366 5.6722 33.1366 11.8188ZM7.59443 11.8188C7.59443 8.32473 9.44781 5.20193 12.3396 3.15581C14.2675 5.79596 16.4562 8.46911 19.7764 10.2677C19.036 11.1216 15.6459 14.7147 10.0858 16.1874C10.3792 13.5638 13.1127 10.9608 13.1406 10.936C13.285 10.7999 13.2756 10.5854 13.1266 10.4575C12.973 10.3296 12.7308 10.3378 12.5911 10.4699C12.4607 10.5936 9.47575 13.4276 9.30811 16.3772C9.30345 16.3772 9.2988 16.3772 9.29414 16.3813C9.06596 16.3607 8.85641 16.3566 8.66548 16.3648C7.641 14.7972 7.59443 13.8195 7.59443 11.8188ZM15.7018 28.2785C13.9648 27.1193 12.5771 25.3042 11.5853 22.9033L10.9426 20.9768C10.8821 20.7994 10.6725 20.6963 10.4676 20.7499C10.2674 20.8036 10.151 20.9892 10.2115 21.1707L10.8635 23.1178C10.8774 23.155 10.8961 23.188 10.91 23.2251C9.63874 23.1673 8.54906 22.0741 7.94369 21.0511C7.15204 19.7145 6.98906 18.2831 7.54787 17.5694C7.87849 17.1445 8.46059 16.9754 9.28017 17.0661C9.28948 17.0661 9.30345 17.0661 9.31277 17.0661C9.31742 17.0661 9.32208 17.0661 9.32674 17.0661C9.33139 17.0661 9.33605 17.0661 9.34071 17.0661C9.36399 17.0661 9.38728 17.062 9.41056 17.0579C9.41522 17.0579 9.41522 17.0579 9.41987 17.0579H9.42453C9.42919 17.0579 9.43384 17.0579 9.4385 17.0537C9.52698 17.0331 9.61545 17.0125 9.69928 16.9919C9.7505 16.9877 9.80172 16.9754 9.84829 16.9589C16.1209 15.4614 19.7578 11.4352 20.4424 10.6184C20.4843 10.639 20.5262 10.6637 20.5681 10.6844C21.56 11.1546 22.6077 11.5383 23.6183 11.9054C24.5403 12.2437 25.4996 12.5902 26.3937 13.0027C28.6848 14.0506 30.0865 15.251 30.6872 16.666C30.6872 16.6701 30.6918 16.6701 30.6918 16.6742C30.6965 16.6825 30.7011 16.6948 30.7058 16.7031C30.7105 16.7113 30.7151 16.7196 30.7244 16.7278C30.7291 16.7361 30.7384 16.7443 30.7431 16.7526C30.7431 16.7526 30.7431 16.7567 30.7477 16.7567C30.7151 16.8145 30.6965 16.8846 30.7058 16.9547C30.7291 17.1404 30.92 17.2724 31.1296 17.2476C31.9491 17.161 32.5312 17.3301 32.8619 17.7509C33.4207 18.4646 33.2577 19.9001 32.466 21.2326C31.9026 22.1855 30.92 23.1921 29.7605 23.3777C29.8676 23.1096 29.9747 22.8332 30.0725 22.5485L30.5195 20.882C30.5661 20.7004 30.4404 20.5189 30.2355 20.4777C30.0306 20.4364 29.8257 20.5478 29.7791 20.7293L29.3367 22.3753C28.4007 25.0649 27.0363 26.9419 25.0199 28.2909C25.0153 28.2909 25.0153 28.295 25.0106 28.295C23.7067 29.2521 22.0582 29.7801 20.3632 29.7801C18.6728 29.776 17.0197 29.2479 15.7018 28.2785Z" fill="#3A643C"/>
<path d="M17.1916 17.9282C15.3755 19.1658 13.1635 17.9612 13.0658 17.9117C12.8888 17.8127 12.6513 17.8581 12.5395 18.0148C12.4278 18.1716 12.479 18.382 12.656 18.481C12.7305 18.5222 13.8947 19.1617 15.3196 19.1617C16.0647 19.1617 16.8796 18.9884 17.648 18.4645C17.8156 18.3531 17.8482 18.1386 17.7178 17.9901C17.5968 17.8457 17.3593 17.8168 17.1916 17.9282Z" fill="#3A643C"/>
<path d="M28.0693 18.4814C28.2462 18.3824 28.2975 18.1761 28.1857 18.0152C28.0739 17.8585 27.8411 17.809 27.6595 17.908C27.5663 17.9616 25.3544 19.1621 23.5336 17.9245C23.366 17.809 23.1285 17.8379 22.9981 17.9864C22.8677 18.1349 22.9003 18.3453 23.0679 18.4608C23.8363 18.9847 24.6512 19.1579 25.3963 19.1579C26.8306 19.1621 27.9994 18.5227 28.0693 18.4814Z" fill="#3A643C"/>
<path d="M5.205 17.3127C3.45407 17.1683 3.31437 14.6024 3.31437 14.5776C3.30505 14.3961 3.13741 14.2559 2.93251 14.2559C2.72762 14.2559 2.55997 14.4002 2.55066 14.5776C2.55066 14.6024 2.41096 17.1683 0.660028 17.3127C0.464445 17.3292 0.31543 17.4735 0.31543 17.6468C0.31543 17.8201 0.464445 17.9644 0.660028 17.981C2.11293 18.1006 2.51806 20.5716 2.55066 21.5122C2.55532 21.6937 2.72762 21.838 2.93251 21.838C3.13741 21.838 3.30505 21.6937 3.31437 21.5122C3.34696 20.5716 3.7521 18.1006 5.205 17.981C5.40058 17.9644 5.5496 17.8201 5.5496 17.6468C5.5496 17.4735 5.40058 17.3292 5.205 17.3127ZM2.93251 19.4372C2.70433 18.7606 2.33645 18.08 1.75436 17.6757C2.33645 17.3415 2.70433 16.7929 2.93251 16.2484C3.16069 16.7929 3.52858 17.3415 4.11067 17.6757C3.52858 18.08 3.16069 18.7606 2.93251 19.4372Z" fill="#3A643C"/>
<path d="M40.3398 6.74821C38.5888 6.60382 38.4491 4.03793 38.4491 4.01318C38.4398 3.83166 38.2722 3.69141 38.0673 3.69141C37.8624 3.69141 37.6947 3.83579 37.6854 4.01318C37.6854 4.03793 37.5457 6.60382 35.7948 6.74821C35.5992 6.76471 35.4502 6.90909 35.4502 7.08235C35.4502 7.25561 35.5992 7.4 35.7948 7.4165C37.2477 7.53613 37.6528 10.0071 37.6854 10.9477C37.6901 11.1292 37.8624 11.2736 38.0673 11.2736C38.2722 11.2736 38.4398 11.1292 38.4491 10.9477C38.4817 10.0071 38.8869 7.53613 40.3398 7.4165C40.5353 7.4 40.6844 7.25561 40.6844 7.08235C40.6844 6.90909 40.5353 6.76471 40.3398 6.74821ZM38.0719 8.87271C37.8438 8.19617 37.4759 7.5155 36.8938 7.11123C37.4759 6.77708 37.8438 6.22843 38.0719 5.6839C38.3001 6.22843 38.668 6.77708 39.2501 7.11123C38.6633 7.5155 38.3001 8.19617 38.0719 8.87271Z" fill="#3A643C"/>
<path d="M7.94381 24.2468C7.15216 24.1808 7.08697 22.9886 7.08697 22.9762C7.08231 22.8566 6.97055 22.7617 6.83551 22.7617C6.70046 22.7617 6.5887 22.8566 6.58404 22.9762C6.58404 22.9886 6.50953 24.1808 5.7272 24.2468C5.59681 24.2592 5.49902 24.3541 5.49902 24.4696C5.49902 24.5851 5.59681 24.6841 5.7272 24.6923C6.37915 24.746 6.56542 25.934 6.58404 26.3466C6.5887 26.4662 6.70046 26.5652 6.83551 26.5652C6.97055 26.5652 7.08697 26.4703 7.08697 26.3466C7.10094 25.934 7.29187 24.746 7.94381 24.6923C8.0742 24.68 8.17199 24.5851 8.17199 24.4696C8.17199 24.3541 8.0742 24.2592 7.94381 24.2468ZM6.83551 25.1337C6.73306 24.8862 6.58404 24.6552 6.37915 24.4902C6.58404 24.3499 6.73306 24.1561 6.83551 23.9539C6.93795 24.1561 7.08697 24.3499 7.29186 24.4902C7.08697 24.6552 6.93795 24.8862 6.83551 25.1337Z" fill="#3A643C"/>
</svg>
