<svg width="13" height="11" viewBox="0 0 13 11" fill="none" xmlns="http://www.w3.org/2000/svg">
<ellipse opacity="0.5" cx="6.75" cy="5.16667" rx="3.125" ry="2.60417" stroke="#3A643C"/>
<path d="M6.75 2.25L6.75 2.45833" stroke="#3A643C" stroke-linecap="round"/>
<path d="M6.75 7.45703V8.29036" stroke="#3A643C" stroke-linecap="round"/>
<path d="M4.11589 3.61046C4.32803 3.78724 4.67197 3.78724 4.88411 3.61046C5.09625 3.43367 5.09625 3.14705 4.88411 2.97027L4.11589 3.61046ZM4.25 3.08203L3.86589 3.40212L4.11589 3.61046L4.5 3.29036L4.88411 2.97027L4.63411 2.76194L4.25 3.08203Z" fill="#3A643C"/>
<path d="M8.24089 3.28277C8.02875 3.45955 8.02875 3.74617 8.24089 3.92296C8.45303 4.09974 8.79697 4.09974 9.00911 3.92296L8.24089 3.28277ZM9.25 3.08203L8.86589 2.76194L8.24089 3.28277L8.625 3.60286L9.00911 3.92296L9.63411 3.40212L9.25 3.08203Z" fill="#3A643C"/>
<path d="M9.38411 6.72157C9.17197 6.54479 8.82803 6.54479 8.61589 6.72157C8.40375 6.89836 8.40375 7.18498 8.61589 7.36176L9.38411 6.72157ZM9.25 7.25L9.63411 6.92991L9.38411 6.72157L9 7.04167L8.61589 7.36176L8.86589 7.57009L9.25 7.25Z" fill="#3A643C"/>
<path d="M3 5.16602L3.5 5.16602" stroke="#3A643C" stroke-linecap="round"/>
<path d="M9.5 5.16602L10.5 5.16602" stroke="#3A643C" stroke-linecap="round"/>
<path d="M5.25911 7.04926C5.47125 6.87248 5.47125 6.58586 5.25911 6.40907C5.04697 6.23229 4.70303 6.23229 4.49089 6.40907L5.25911 7.04926ZM4.25 7.25L4.63411 7.57009L5.25911 7.04926L4.875 6.72917L4.49089 6.40907L3.86589 6.92991L4.25 7.25Z" fill="#3A643C"/>
<path d="M7 3.91667C7 4.14679 6.77614 4.33333 6.5 4.33333C6.22386 4.33333 6 4.14679 6 3.91667C6 3.68655 6.22386 3.5 6.5 3.5C6.77614 3.5 7 3.68655 7 3.91667Z" stroke="#3A643C"/>
<path d="M6 5.58268C6 5.8128 5.77614 5.99935 5.5 5.99935C5.22386 5.99935 5 5.8128 5 5.58268C5 5.35256 5.22386 5.16602 5.5 5.16602C5.77614 5.16602 6 5.35256 6 5.58268Z" stroke="#3A643C"/>
<path d="M8.75 5.9987C8.75 6.22882 8.52614 6.41536 8.25 6.41536C7.97386 6.41536 7.75 6.22882 7.75 5.9987C7.75 5.76858 7.97386 5.58203 8.25 5.58203C8.52614 5.58203 8.75 5.76858 8.75 5.9987Z" stroke="#3A643C"/>
<ellipse cx="0.5" cy="0.416667" rx="0.5" ry="0.416667" transform="matrix(1 0 0 -1 6.25 2.04102)" stroke="#3A643C"/>
<path d="M7.25 8.70833C7.25 8.47821 7.02614 8.29167 6.75 8.29167C6.47386 8.29167 6.25 8.47821 6.25 8.70833C6.25 8.93845 6.47386 9.125 6.75 9.125C7.02614 9.125 7.25 8.93845 7.25 8.70833Z" stroke="#3A643C"/>
<ellipse cx="0.5" cy="0.416667" rx="0.5" ry="0.416667" transform="matrix(1 0 0 -1 3.25 3.08203)" stroke="#3A643C"/>
<ellipse cx="0.5" cy="0.416667" rx="0.5" ry="0.416667" transform="matrix(1 0 0 -1 9.25 3.08203)" stroke="#3A643C"/>
<ellipse cx="0.5" cy="0.416667" rx="0.5" ry="0.416667" transform="matrix(1 0 0 -1 9.25 8.08203)" stroke="#3A643C"/>
<path d="M3 5.16536C3 4.93525 2.77614 4.7487 2.5 4.7487C2.22386 4.7487 2 4.93525 2 5.16536C2 5.39548 2.22386 5.58203 2.5 5.58203C2.77614 5.58203 3 5.39548 3 5.16536Z" stroke="#3A643C"/>
<path d="M11.5 5.16536C11.5 4.93525 11.2761 4.7487 11 4.7487C10.7239 4.7487 10.5 4.93525 10.5 5.16536C10.5 5.39548 10.7239 5.58203 11 5.58203C11.2761 5.58203 11.5 5.39548 11.5 5.16536Z" stroke="#3A643C"/>
<ellipse cx="0.5" cy="0.416667" rx="0.5" ry="0.416667" transform="matrix(1 0 0 -1 3.25 8.08203)" stroke="#3A643C"/>
</svg>
