<svg width="16" height="16" viewBox="0 0 16 16" fill="none" xmlns="http://www.w3.org/2000/svg">
<path d="M10.4921 10.8821H5.26176L3.82153 4.04102H13.4668C14.2593 4.04102 14.6556 4.04102 14.8624 4.32551C15.0691 4.61 14.9831 5.03701 14.8112 5.89104C14.2151 8.85194 13.7237 10.8821 10.4921 10.8821Z" fill="#FFF7E2"/>
<path d="M5.26176 10.8821H10.4921C13.7237 10.8821 14.2151 8.85194 14.8112 5.89104C14.9831 5.03701 15.0691 4.61 14.8624 4.32551C14.6556 4.04102 14.2593 4.04102 13.4668 4.04102H3.82153" stroke="#3A643C" stroke-linecap="round"/>
<path d="M5.26067 10.8824L3.37306 1.8917C3.21278 1.25056 2.63671 0.800781 1.97584 0.800781H1.30005" stroke="#3A643C" stroke-linecap="round"/>
<path d="M5.89546 10.8789H5.59918C4.61742 10.8789 3.82153 11.708 3.82153 12.7306C3.82153 12.9011 3.95418 13.0392 4.11781 13.0392H12.1028" stroke="#3A643C" stroke-linecap="round" stroke-linejoin="round"/>
<path d="M7.0621 15.1994C7.65866 15.1994 8.14227 14.7158 8.14227 14.1192C8.14227 13.5227 7.65866 13.0391 7.0621 13.0391C6.46554 13.0391 5.98193 13.5227 5.98193 14.1192C5.98193 14.7158 6.46554 15.1994 7.0621 15.1994Z" stroke="#3A643C"/>
<path d="M12.1017 15.1994C12.6982 15.1994 13.1818 14.7158 13.1818 14.1192C13.1818 13.5227 12.6982 13.0391 12.1017 13.0391C11.5051 13.0391 11.0215 13.5227 11.0215 14.1192C11.0215 14.7158 11.5051 15.1994 12.1017 15.1994Z" stroke="#3A643C"/>
</svg>
