<svg width="25" height="24" viewBox="0 0 25 24" fill="none" xmlns="http://www.w3.org/2000/svg">
<path fill-rule="evenodd" clip-rule="evenodd" d="M4.625 8.25C4.625 7.62868 5.12868 7.125 5.75 7.125H21.5C22.1213 7.125 22.625 7.62868 22.625 8.25C22.625 8.87132 22.1213 9.375 21.5 9.375H5.75C5.12868 9.375 4.625 8.87132 4.625 8.25Z" fill="#3A643B"/>
<path fill-rule="evenodd" clip-rule="evenodd" d="M4.625 13.125C4.625 12.5037 5.12868 12 5.75 12H21.5C22.1213 12 22.625 12.5037 22.625 13.125C22.625 13.7463 22.1213 14.25 21.5 14.25H5.75C5.12868 14.25 4.625 13.7463 4.625 13.125Z" fill="#3A643B"/>
<path fill-rule="evenodd" clip-rule="evenodd" d="M4.625 18C4.625 17.3787 5.12868 16.875 5.75 16.875H21.5C22.1213 16.875 22.625 17.3787 22.625 18C22.625 18.6213 22.1213 19.125 21.5 19.125H5.75C5.12868 19.125 4.625 18.6213 4.625 18Z" fill="#3A643B"/>
</svg>
