<svg width="16" height="16" viewBox="0 0 16 16" fill="none" xmlns="http://www.w3.org/2000/svg">
<path d="M1.30005 5.34766H10.3948C12.5384 5.34766 13.6102 5.34766 14.2762 6.0136C14.9422 6.67958 14.9422 7.7514 14.9422 9.89503V10.6529C14.9422 12.7965 14.9422 13.8684 14.2762 14.5343C13.6102 15.2003 12.5384 15.2003 10.3948 15.2003H5.84742C3.70377 15.2003 2.63194 15.2003 1.966 14.5343C1.30005 13.8684 1.30005 12.7965 1.30005 10.6529V5.34766Z" fill="#FFF7E2"/>
<path d="M1.30005 5.34766H10.3948C12.5384 5.34766 13.6102 5.34766 14.2762 6.0136C14.9422 6.67958 14.9422 7.7514 14.9422 9.89503V10.6529C14.9422 12.7965 14.9422 13.8684 14.2762 14.5343C13.6102 15.2003 12.5384 15.2003 10.3948 15.2003H5.84742C3.70377 15.2003 2.63194 15.2003 1.966 14.5343C1.30005 13.8684 1.30005 12.7965 1.30005 10.6529V5.34766Z" stroke="#3A643C" stroke-linecap="square" stroke-linejoin="round"/>
<path d="M10.3948 5.34688V2.02122C10.3948 1.34719 9.84834 0.800781 9.17435 0.800781C8.98025 0.800781 8.78896 0.847073 8.61631 0.935823L1.87779 4.40023C1.52305 4.58261 1.30005 4.948 1.30005 5.34688" stroke="#3A643C" stroke-linecap="round" stroke-linejoin="round"/>
</svg>
